<svg xmlns="http://www.w3.org/2000/svg" xmlns:xlink="http://www.w3.org/1999/xlink" width="271" zoomAndPan="magnify" viewBox="0 0 203.25 203.249996" height="271" preserveAspectRatio="xMidYMid meet" version="1.0"><defs><clipPath id="a6dfb1af2b"><path d="M 34.292969 34.257812 L 168 34.257812 L 168 168 L 34.292969 168 Z M 34.292969 34.257812 " clip-rule="nonzero"/></clipPath></defs><g clip-path="url(#a6dfb1af2b)"><path fill="#529cb2" d="M 101.078125 34.183594 C 99.984375 34.183594 98.890625 34.210938 97.800781 34.265625 C 96.710938 34.320312 95.621094 34.398438 94.53125 34.507812 C 93.445312 34.613281 92.363281 34.746094 91.28125 34.90625 C 90.199219 35.066406 89.125 35.253906 88.054688 35.46875 C 86.980469 35.679688 85.914062 35.917969 84.855469 36.183594 C 83.796875 36.449219 82.742188 36.742188 81.699219 37.058594 C 80.652344 37.375 79.617188 37.71875 78.585938 38.085938 C 77.558594 38.453125 76.539062 38.847656 75.53125 39.265625 C 74.519531 39.683594 73.523438 40.125 72.535156 40.59375 C 71.546875 41.0625 70.570312 41.550781 69.609375 42.066406 C 68.644531 42.582031 67.695312 43.121094 66.757812 43.683594 C 65.820312 44.242188 64.898438 44.828125 63.988281 45.433594 C 63.082031 46.042969 62.1875 46.671875 61.308594 47.320312 C 60.433594 47.972656 59.570312 48.644531 58.726562 49.335938 C 57.882812 50.03125 57.054688 50.742188 56.246094 51.476562 C 55.4375 52.210938 54.644531 52.964844 53.871094 53.738281 C 53.101562 54.507812 52.347656 55.300781 51.613281 56.109375 C 50.878906 56.917969 50.167969 57.746094 49.472656 58.589844 C 48.78125 59.433594 48.109375 60.296875 47.457031 61.175781 C 46.808594 62.050781 46.179688 62.945312 45.570312 63.851562 C 44.964844 64.761719 44.378906 65.683594 43.816406 66.621094 C 43.257812 67.558594 42.71875 68.507812 42.203125 69.472656 C 41.6875 70.433594 41.195312 71.410156 40.730469 72.398438 C 40.261719 73.386719 39.820312 74.382812 39.402344 75.394531 C 38.984375 76.402344 38.589844 77.421875 38.222656 78.449219 C 37.855469 79.480469 37.511719 80.515625 37.195312 81.5625 C 36.878906 82.609375 36.585938 83.660156 36.320312 84.71875 C 36.054688 85.78125 35.816406 86.84375 35.601562 87.917969 C 35.390625 88.988281 35.203125 90.0625 35.042969 91.144531 C 34.882812 92.226562 34.75 93.308594 34.640625 94.398438 C 34.535156 95.484375 34.453125 96.574219 34.402344 97.664062 C 34.347656 98.753906 34.320312 99.847656 34.320312 100.941406 C 34.320312 102.03125 34.347656 103.125 34.402344 104.214844 C 34.453125 105.308594 34.535156 106.394531 34.640625 107.484375 C 34.75 108.570312 34.882812 109.65625 35.042969 110.734375 C 35.203125 111.816406 35.390625 112.890625 35.601562 113.964844 C 35.816406 115.035156 36.054688 116.101562 36.320312 117.160156 C 36.585938 118.21875 36.878906 119.273438 37.195312 120.316406 C 37.511719 121.363281 37.855469 122.402344 38.222656 123.429688 C 38.589844 124.457031 38.984375 125.476562 39.402344 126.488281 C 39.820312 127.496094 40.261719 128.496094 40.730469 129.480469 C 41.195312 130.46875 41.6875 131.445312 42.203125 132.410156 C 42.71875 133.371094 43.257812 134.324219 43.816406 135.257812 C 44.378906 136.195312 44.964844 137.121094 45.570312 138.027344 C 46.179688 138.9375 46.808594 139.828125 47.457031 140.707031 C 48.109375 141.582031 48.78125 142.445312 49.472656 143.289062 C 50.167969 144.132812 50.878906 144.960938 51.613281 145.769531 C 52.347656 146.578125 53.101562 147.371094 53.871094 148.144531 C 54.644531 148.917969 55.4375 149.667969 56.246094 150.402344 C 57.054688 151.136719 57.882812 151.851562 58.726562 152.542969 C 59.570312 153.234375 60.433594 153.90625 61.308594 154.558594 C 62.1875 155.210938 63.082031 155.839844 63.988281 156.445312 C 64.898438 157.050781 65.820312 157.636719 66.757812 158.199219 C 67.695312 158.761719 68.644531 159.296875 69.609375 159.8125 C 70.570312 160.328125 71.546875 160.820312 72.535156 161.285156 C 73.523438 161.753906 74.519531 162.195312 75.53125 162.613281 C 76.539062 163.03125 77.558594 163.425781 78.585938 163.792969 C 79.617188 164.160156 80.652344 164.503906 81.699219 164.820312 C 82.742188 165.136719 83.796875 165.429688 84.855469 165.695312 C 85.914062 165.960938 86.980469 166.199219 88.054688 166.414062 C 89.125 166.625 90.199219 166.8125 91.28125 166.972656 C 92.363281 167.132812 93.445312 167.265625 94.53125 167.375 C 95.621094 167.480469 96.710938 167.5625 97.800781 167.617188 C 98.890625 167.667969 99.984375 167.695312 101.078125 167.695312 C 102.167969 167.695312 103.261719 167.667969 104.351562 167.617188 C 105.441406 167.5625 106.53125 167.480469 107.621094 167.375 C 108.707031 167.265625 109.789062 167.132812 110.871094 166.972656 C 111.953125 166.8125 113.027344 166.625 114.097656 166.414062 C 115.171875 166.199219 116.238281 165.960938 117.296875 165.695312 C 118.355469 165.429688 119.410156 165.136719 120.453125 164.820312 C 121.5 164.503906 122.535156 164.160156 123.566406 163.792969 C 124.59375 163.425781 125.613281 163.03125 126.621094 162.613281 C 127.632812 162.195312 128.628906 161.753906 129.617188 161.285156 C 130.605469 160.820312 131.582031 160.328125 132.542969 159.8125 C 133.507812 159.296875 134.457031 158.761719 135.394531 158.199219 C 136.332031 157.636719 137.253906 157.050781 138.164062 156.445312 C 139.070312 155.839844 139.964844 155.210938 140.84375 154.558594 C 141.71875 153.90625 142.582031 153.234375 143.425781 152.542969 C 144.269531 151.851562 145.097656 151.136719 145.90625 150.402344 C 146.714844 149.667969 147.507812 148.917969 148.28125 148.144531 C 149.050781 147.371094 149.804688 146.578125 150.539062 145.769531 C 151.273438 144.960938 151.984375 144.132812 152.679688 143.289062 C 153.371094 142.445312 154.042969 141.582031 154.695312 140.707031 C 155.34375 139.828125 155.972656 138.9375 156.582031 138.027344 C 157.1875 137.121094 157.773438 136.195312 158.335938 135.257812 C 158.894531 134.324219 159.433594 133.371094 159.949219 132.410156 C 160.464844 131.445312 160.957031 130.46875 161.421875 129.480469 C 161.890625 128.496094 162.332031 127.496094 162.75 126.488281 C 163.167969 125.476562 163.5625 124.457031 163.929688 123.429688 C 164.296875 122.402344 164.640625 121.363281 164.957031 120.316406 C 165.273438 119.273438 165.566406 118.21875 165.832031 117.160156 C 166.097656 116.101562 166.335938 115.035156 166.550781 113.964844 C 166.761719 112.890625 166.949219 111.816406 167.109375 110.734375 C 167.269531 109.65625 167.402344 108.570312 167.511719 107.484375 C 167.617188 106.394531 167.699219 105.308594 167.75 104.214844 C 167.804688 103.125 167.832031 102.03125 167.832031 100.941406 C 167.832031 99.847656 167.800781 98.757812 167.75 97.664062 C 167.695312 96.574219 167.613281 95.484375 167.503906 94.398438 C 167.394531 93.3125 167.261719 92.230469 167.101562 91.148438 C 166.9375 90.070312 166.75 88.992188 166.539062 87.921875 C 166.324219 86.851562 166.082031 85.785156 165.816406 84.726562 C 165.550781 83.667969 165.257812 82.613281 164.941406 81.570312 C 164.625 80.523438 164.28125 79.488281 163.910156 78.460938 C 163.542969 77.433594 163.148438 76.414062 162.730469 75.40625 C 162.3125 74.394531 161.871094 73.398438 161.402344 72.410156 C 160.933594 71.425781 160.445312 70.449219 159.929688 69.484375 C 159.414062 68.523438 158.875 67.574219 158.3125 66.636719 C 157.75 65.699219 157.167969 64.777344 156.558594 63.871094 C 155.953125 62.960938 155.324219 62.070312 154.671875 61.191406 C 154.023438 60.316406 153.351562 59.453125 152.65625 58.609375 C 151.964844 57.765625 151.25 56.9375 150.515625 56.128906 C 149.785156 55.320312 149.03125 54.53125 148.257812 53.757812 C 147.488281 52.984375 146.695312 52.234375 145.886719 51.5 C 145.078125 50.765625 144.25 50.050781 143.40625 49.359375 C 142.5625 48.667969 141.703125 47.996094 140.824219 47.34375 C 139.949219 46.691406 139.054688 46.0625 138.148438 45.457031 C 137.238281 44.851562 136.316406 44.265625 135.378906 43.703125 C 134.441406 43.140625 133.492188 42.601562 132.53125 42.089844 C 131.566406 41.574219 130.59375 41.082031 129.605469 40.613281 C 128.617188 40.148438 127.621094 39.703125 126.613281 39.285156 C 125.601562 38.867188 124.585938 38.472656 123.554688 38.105469 C 122.527344 37.734375 121.492188 37.394531 120.445312 37.074219 C 119.402344 36.757812 118.347656 36.464844 117.289062 36.199219 C 116.230469 35.933594 115.164062 35.691406 114.09375 35.480469 C 113.023438 35.265625 111.949219 35.078125 110.867188 34.917969 C 109.789062 34.753906 108.703125 34.621094 107.617188 34.511719 C 106.53125 34.40625 105.441406 34.324219 104.351562 34.269531 C 103.261719 34.214844 102.167969 34.1875 101.078125 34.183594 Z M 101.078125 162.699219 C 99.054688 162.699219 97.035156 162.597656 95.023438 162.402344 C 93.011719 162.203125 91.011719 161.90625 89.027344 161.511719 C 87.042969 161.117188 85.085938 160.625 83.148438 160.039062 C 81.214844 159.453125 79.3125 158.769531 77.441406 157.996094 C 75.574219 157.222656 73.746094 156.359375 71.964844 155.40625 C 70.179688 154.453125 68.445312 153.414062 66.765625 152.289062 C 65.082031 151.167969 63.460938 149.960938 61.898438 148.679688 C 60.332031 147.398438 58.835938 146.039062 57.40625 144.609375 C 55.976562 143.179688 54.621094 141.683594 53.335938 140.117188 C 52.054688 138.554688 50.851562 136.933594 49.726562 135.25 C 48.601562 133.570312 47.5625 131.835938 46.609375 130.050781 C 45.65625 128.269531 44.792969 126.441406 44.019531 124.574219 C 43.246094 122.707031 42.566406 120.804688 41.976562 118.867188 C 41.390625 116.933594 40.898438 114.972656 40.503906 112.988281 C 40.109375 111.003906 39.8125 109.007812 39.617188 106.992188 C 39.417969 104.980469 39.316406 102.960938 39.316406 100.941406 C 39.316406 98.917969 39.417969 96.898438 39.617188 94.886719 C 39.8125 92.875 40.109375 90.875 40.503906 88.890625 C 40.898438 86.90625 41.390625 84.949219 41.976562 83.011719 C 42.566406 81.078125 43.246094 79.175781 44.019531 77.304688 C 44.792969 75.4375 45.65625 73.613281 46.609375 71.828125 C 47.5625 70.042969 48.601562 68.3125 49.726562 66.628906 C 50.851562 64.949219 52.054688 63.324219 53.335938 61.761719 C 54.621094 60.199219 55.976562 58.699219 57.40625 57.269531 C 58.835938 55.839844 60.332031 54.484375 61.898438 53.199219 C 63.460938 51.917969 65.082031 50.714844 66.765625 49.589844 C 68.445312 48.464844 70.179688 47.429688 71.964844 46.472656 C 73.746094 45.519531 75.574219 44.65625 77.441406 43.882812 C 79.3125 43.109375 81.214844 42.429688 83.148438 41.839844 C 85.085938 41.253906 87.042969 40.761719 89.027344 40.367188 C 91.011719 39.972656 93.011719 39.679688 95.023438 39.480469 C 97.035156 39.28125 99.054688 39.183594 101.078125 39.183594 C 103.097656 39.183594 105.117188 39.28125 107.128906 39.480469 C 109.140625 39.679688 111.140625 39.972656 113.125 40.367188 C 115.109375 40.761719 117.066406 41.253906 119.003906 41.839844 C 120.9375 42.429688 122.839844 43.109375 124.710938 43.882812 C 126.578125 44.65625 128.40625 45.519531 130.1875 46.472656 C 131.972656 47.429688 133.707031 48.464844 135.386719 49.589844 C 137.070312 50.714844 138.691406 51.917969 140.253906 53.199219 C 141.820312 54.484375 143.316406 55.839844 144.746094 57.269531 C 146.175781 58.699219 147.53125 60.199219 148.816406 61.761719 C 150.097656 63.324219 151.300781 64.949219 152.425781 66.628906 C 153.550781 68.3125 154.589844 70.042969 155.542969 71.828125 C 156.496094 73.613281 157.359375 75.4375 158.132812 77.304688 C 158.90625 79.175781 159.585938 81.078125 160.175781 83.011719 C 160.761719 84.949219 161.253906 86.90625 161.648438 88.890625 C 162.042969 90.875 162.339844 92.875 162.535156 94.886719 C 162.734375 96.898438 162.835938 98.917969 162.835938 100.941406 C 162.832031 102.960938 162.730469 104.980469 162.53125 106.992188 C 162.328125 109.003906 162.03125 111 161.636719 112.984375 C 161.238281 114.964844 160.746094 116.925781 160.160156 118.859375 C 159.570312 120.792969 158.890625 122.695312 158.113281 124.5625 C 157.339844 126.429688 156.476562 128.253906 155.519531 130.039062 C 154.566406 131.820312 153.527344 133.554688 152.402344 135.234375 C 151.28125 136.914062 150.078125 138.535156 148.792969 140.101562 C 147.511719 141.664062 146.15625 143.160156 144.726562 144.589844 C 143.296875 146.019531 141.796875 147.375 140.234375 148.65625 C 138.671875 149.941406 137.050781 151.144531 135.371094 152.269531 C 133.6875 153.390625 131.957031 154.429688 130.175781 155.386719 C 128.390625 156.339844 126.566406 157.203125 124.699219 157.976562 C 122.832031 158.753906 120.929688 159.433594 118.996094 160.023438 C 117.0625 160.609375 115.101562 161.101562 113.121094 161.5 C 111.136719 161.894531 109.140625 162.195312 107.128906 162.394531 C 105.117188 162.59375 103.097656 162.695312 101.078125 162.699219 Z M 101.078125 162.699219 " fill-opacity="1" fill-rule="nonzero"/></g><path fill="#529cb2" d="M 137.074219 86.207031 L 115.710938 86.207031 L 115.710938 64.839844 C 115.710938 64.507812 115.648438 64.191406 115.519531 63.882812 C 115.394531 63.578125 115.210938 63.308594 114.976562 63.074219 C 114.742188 62.839844 114.472656 62.660156 114.167969 62.53125 C 113.859375 62.40625 113.542969 62.339844 113.210938 62.34375 L 88.742188 62.34375 C 88.410156 62.339844 88.089844 62.40625 87.785156 62.53125 C 87.480469 62.660156 87.207031 62.839844 86.972656 63.074219 C 86.738281 63.308594 86.558594 63.578125 86.433594 63.882812 C 86.304688 64.191406 86.242188 64.507812 86.242188 64.839844 L 86.242188 86.207031 L 64.875 86.207031 C 64.546875 86.207031 64.226562 86.269531 63.921875 86.398438 C 63.613281 86.523438 63.34375 86.703125 63.109375 86.9375 C 62.875 87.171875 62.695312 87.441406 62.566406 87.75 C 62.441406 88.054688 62.378906 88.375 62.378906 88.707031 L 62.378906 113.175781 C 62.378906 113.507812 62.441406 113.824219 62.566406 114.132812 C 62.695312 114.4375 62.875 114.707031 63.109375 114.941406 C 63.34375 115.175781 63.613281 115.355469 63.921875 115.484375 C 64.226562 115.609375 64.546875 115.671875 64.875 115.671875 L 86.242188 115.671875 L 86.242188 137.039062 C 86.242188 137.371094 86.304688 137.691406 86.433594 137.996094 C 86.558594 138.300781 86.738281 138.574219 86.972656 138.808594 C 87.207031 139.042969 87.480469 139.222656 87.785156 139.347656 C 88.089844 139.476562 88.410156 139.539062 88.742188 139.539062 L 113.210938 139.539062 C 113.542969 139.539062 113.859375 139.476562 114.167969 139.347656 C 114.472656 139.222656 114.742188 139.042969 114.976562 138.808594 C 115.210938 138.574219 115.394531 138.300781 115.519531 137.996094 C 115.648438 137.691406 115.710938 137.371094 115.710938 137.039062 L 115.710938 115.671875 L 137.074219 115.671875 C 137.40625 115.671875 137.726562 115.609375 138.03125 115.484375 C 138.339844 115.355469 138.609375 115.175781 138.84375 114.941406 C 139.078125 114.707031 139.257812 114.4375 139.382812 114.132812 C 139.511719 113.824219 139.574219 113.507812 139.574219 113.175781 L 139.574219 88.707031 C 139.574219 88.375 139.511719 88.054688 139.382812 87.75 C 139.257812 87.441406 139.078125 87.171875 138.84375 86.9375 C 138.609375 86.703125 138.339844 86.523438 138.03125 86.398438 C 137.726562 86.269531 137.40625 86.207031 137.074219 86.207031 Z M 134.578125 110.675781 L 113.210938 110.675781 C 112.878906 110.675781 112.5625 110.738281 112.253906 110.867188 C 111.949219 110.992188 111.679688 111.175781 111.445312 111.40625 C 111.210938 111.640625 111.03125 111.914062 110.902344 112.21875 C 110.777344 112.523438 110.710938 112.84375 110.710938 113.175781 L 110.710938 134.539062 L 91.242188 134.539062 L 91.242188 113.175781 C 91.242188 112.84375 91.175781 112.523438 91.050781 112.21875 C 90.921875 111.914062 90.742188 111.640625 90.507812 111.40625 C 90.273438 111.175781 90.003906 110.992188 89.699219 110.867188 C 89.390625 110.738281 89.074219 110.675781 88.742188 110.675781 L 67.375 110.675781 L 67.375 91.203125 L 88.742188 91.203125 C 89.074219 91.203125 89.390625 91.140625 89.699219 91.015625 C 90.003906 90.886719 90.273438 90.707031 90.507812 90.472656 C 90.742188 90.238281 90.921875 89.96875 91.050781 89.660156 C 91.175781 89.355469 91.242188 89.035156 91.242188 88.707031 L 91.242188 67.339844 L 110.710938 67.339844 L 110.710938 88.707031 C 110.710938 89.035156 110.777344 89.355469 110.902344 89.660156 C 111.03125 89.96875 111.210938 90.238281 111.445312 90.472656 C 111.679688 90.707031 111.949219 90.886719 112.253906 91.015625 C 112.5625 91.140625 112.878906 91.203125 113.210938 91.203125 L 134.578125 91.203125 Z M 134.578125 110.675781 " fill-opacity="1" fill-rule="nonzero"/></svg>