<svg xmlns="http://www.w3.org/2000/svg" xmlns:xlink="http://www.w3.org/1999/xlink" width="271" zoomAndPan="magnify" viewBox="0 0 203.25 203.249996" height="271" preserveAspectRatio="xMidYMid meet" version="1.0"><defs><clipPath id="94424da755"><path d="M 76 100 L 167 100 L 167 174.734375 L 76 174.734375 Z M 76 100 " clip-rule="nonzero"/></clipPath><clipPath id="a7a60a2273"><path d="M 92 40.976562 L 120 40.976562 L 120 69 L 92 69 Z M 92 40.976562 " clip-rule="nonzero"/></clipPath><clipPath id="0c02249e65"><path d="M 38.683594 73 L 122 73 L 122 137 L 38.683594 137 Z M 38.683594 73 " clip-rule="nonzero"/></clipPath><clipPath id="c2df463146"><path d="M 40 40.976562 L 68 40.976562 L 68 69 L 40 69 Z M 40 40.976562 " clip-rule="nonzero"/></clipPath></defs><g clip-path="url(#94424da755)"><path fill="#87a924" d="M 158.621094 147.585938 L 158.621094 117.269531 C 158.621094 108.257812 151.289062 100.921875 142.273438 100.921875 C 133.257812 100.921875 125.925781 108.257812 125.925781 117.269531 L 125.925781 147.242188 C 125.925781 159.261719 116.148438 169.039062 104.128906 169.039062 C 92.109375 169.039062 82.328125 159.261719 82.328125 147.242188 L 82.328125 142.066406 L 76.878906 142.066406 L 76.878906 147.242188 C 76.878906 162.265625 89.101562 174.488281 104.128906 174.488281 C 119.152344 174.488281 131.375 162.265625 131.375 147.242188 L 131.375 117.269531 C 131.375 111.261719 136.265625 106.371094 142.273438 106.371094 C 148.285156 106.371094 153.171875 111.261719 153.171875 117.269531 L 153.171875 147.585938 C 148.476562 148.800781 145 153.070312 145 158.140625 C 145 164.152344 149.886719 169.039062 155.898438 169.039062 C 161.90625 169.039062 166.796875 164.152344 166.796875 158.140625 C 166.796875 153.070312 163.316406 148.800781 158.621094 147.585938 Z M 155.898438 160.867188 C 154.390625 160.867188 153.171875 159.644531 153.171875 158.140625 C 153.171875 156.636719 154.390625 155.417969 155.898438 155.417969 C 157.402344 155.417969 158.621094 156.636719 158.621094 158.140625 C 158.621094 159.644531 157.402344 160.867188 155.898438 160.867188 Z M 155.898438 160.867188 " fill-opacity="1" fill-rule="nonzero"/></g><g clip-path="url(#a7a60a2273)"><path fill="#87a924" d="M 100.3125 57.328125 C 103.757812 57.328125 106.707031 55.183594 107.910156 52.164062 C 111.378906 53.109375 113.9375 56.285156 113.9375 60.050781 L 113.9375 68.0625 L 119.386719 68.0625 L 119.386719 60.050781 C 119.386719 53.332031 114.496094 47.738281 108.085938 46.628906 C 107.019531 43.355469 103.941406 40.976562 100.3125 40.976562 C 95.804688 40.976562 92.136719 44.644531 92.136719 49.152344 C 92.136719 53.660156 95.804688 57.328125 100.3125 57.328125 Z M 100.3125 57.328125 " fill-opacity="1" fill-rule="nonzero"/></g><g clip-path="url(#0c02249e65)"><path fill="#87a924" d="M 82.601562 136.617188 C 84.105469 136.617188 85.328125 135.394531 85.328125 133.890625 L 85.328125 127.675781 C 85.328125 126.367188 86.257812 125.242188 87.546875 125 C 106.941406 121.332031 121.019531 104.328125 121.019531 84.574219 L 121.019531 73.675781 L 112.574219 73.675781 L 112.574219 84.1875 C 112.574219 105.242188 98.050781 117.058594 79.878906 117.3125 C 60.917969 117.578125 47.179688 104.488281 47.179688 84.574219 L 47.179688 73.675781 L 38.734375 73.675781 L 38.734375 84.574219 C 38.734375 104.328125 52.8125 121.332031 72.210938 125 C 73.496094 125.242188 74.429688 126.367188 74.429688 127.675781 L 74.429688 133.890625 C 74.429688 135.394531 75.648438 136.617188 77.152344 136.617188 Z M 82.601562 136.617188 " fill-opacity="1" fill-rule="nonzero"/></g><g clip-path="url(#c2df463146)"><path fill="#87a924" d="M 45.820312 60.050781 C 45.820312 56.285156 48.375 53.109375 51.847656 52.164062 C 53.046875 55.183594 56 57.328125 59.441406 57.328125 C 63.949219 57.328125 67.617188 53.660156 67.617188 49.152344 C 67.617188 44.644531 63.949219 40.976562 59.441406 40.976562 C 55.816406 40.976562 52.734375 43.355469 51.667969 46.628906 C 45.261719 47.738281 40.367188 53.332031 40.367188 60.050781 L 40.367188 68.0625 L 45.820312 68.0625 Z M 45.820312 60.050781 " fill-opacity="1" fill-rule="nonzero"/></g></svg>