<svg xmlns="http://www.w3.org/2000/svg" xmlns:xlink="http://www.w3.org/1999/xlink" width="271" zoomAndPan="magnify" viewBox="0 0 203.25 203.249996" height="271" preserveAspectRatio="xMidYMid meet" version="1.0"><defs><clipPath id="113ae988b7"><path d="M 71 26.265625 L 132 26.265625 L 132 70 L 71 70 Z M 71 26.265625 " clip-rule="nonzero"/></clipPath><clipPath id="d6b41a914f"><path d="M 42.171875 112 L 104 112 L 104 174.96875 L 42.171875 174.96875 Z M 42.171875 112 " clip-rule="nonzero"/></clipPath><clipPath id="d1a3d0ec96"><path d="M 67 150 L 72 150 L 72 174.96875 L 67 174.96875 Z M 67 150 " clip-rule="nonzero"/></clipPath><clipPath id="a4b72be462"><path d="M 98 112 L 160 112 L 160 174.96875 L 98 174.96875 Z M 98 112 " clip-rule="nonzero"/></clipPath><clipPath id="3424079ada"><path d="M 130 150 L 135 150 L 135 174.96875 L 130 174.96875 Z M 130 150 " clip-rule="nonzero"/></clipPath></defs><g clip-path="url(#113ae988b7)"><path fill="#698519" d="M 74.367188 69.332031 C 73.824219 69.332031 73.304688 69.140625 72.898438 68.785156 C 72.488281 68.433594 72.222656 67.941406 72.144531 67.410156 C 70.246094 54.125 72.183594 44.585938 78.246094 37.386719 C 83.238281 31.511719 90.234375 27.699219 97.878906 26.6875 C 105.523438 25.679688 113.273438 27.542969 119.621094 31.921875 C 126.273438 36.542969 130.242188 43.921875 131.097656 53.261719 C 131.488281 57.496094 131.25 61.761719 130.398438 65.925781 C 130.332031 66.214844 130.207031 66.484375 130.03125 66.726562 C 129.855469 66.96875 129.636719 67.171875 129.382812 67.324219 C 129.128906 67.480469 128.847656 67.582031 128.554688 67.625 C 128.257812 67.671875 127.960938 67.65625 127.671875 67.585938 C 123.640625 66.578125 120.371094 63.078125 118.214844 57.46875 C 117.753906 56.257812 117.359375 55.023438 117.035156 53.773438 C 112.699219 56.597656 105.621094 57.925781 95.886719 57.742188 C 93.46875 57.691406 91.066406 58.164062 88.851562 59.140625 C 86.636719 60.113281 84.664062 61.558594 83.066406 63.378906 C 79.121094 67.882812 75.214844 69.175781 75.050781 69.226562 C 74.828125 69.296875 74.597656 69.332031 74.367188 69.332031 Z M 81.675781 40.277344 C 76.902344 45.945312 75.171875 53.214844 76.195312 63.574219 C 77.488281 62.671875 78.660156 61.613281 79.691406 60.425781 C 81.714844 58.113281 84.222656 56.273438 87.035156 55.035156 C 89.851562 53.796875 92.898438 53.191406 95.972656 53.261719 C 106.816406 53.464844 114.148438 51.652344 116.601562 48.144531 C 116.863281 47.773438 117.230469 47.488281 117.652344 47.328125 C 118.078125 47.171875 118.539062 47.144531 118.980469 47.253906 C 119.421875 47.363281 119.816406 47.601562 120.117188 47.941406 C 120.417969 48.28125 120.609375 48.703125 120.664062 49.152344 C 121.03125 52.078125 122.734375 59.164062 126.488281 62.09375 C 126.832031 59.257812 126.878906 56.390625 126.621094 53.546875 C 125.855469 45.515625 122.640625 39.480469 117.0625 35.605469 C 105.933594 27.878906 90.390625 29.929688 81.675781 40.277344 Z M 81.675781 40.277344 " fill-opacity="1" fill-rule="nonzero"/></g><path fill="#698519" d="M 101.644531 102.941406 C 100.558594 102.941406 99.476562 102.828125 98.414062 102.601562 C 83.074219 99.292969 76.667969 85.769531 75.1875 82.09375 C 72.777344 80.800781 71.199219 78.960938 70.488281 76.613281 C 68.957031 71.546875 72.324219 66.125 72.46875 65.894531 C 72.785156 65.390625 73.289062 65.035156 73.867188 64.902344 C 74.449219 64.769531 75.058594 64.875 75.5625 65.191406 C 76.0625 65.507812 76.421875 66.011719 76.554688 66.589844 C 76.683594 67.171875 76.582031 67.777344 76.265625 68.28125 C 75.585938 69.371094 74 72.761719 74.785156 75.328125 C 75.191406 76.660156 76.207031 77.671875 77.886719 78.425781 C 78.171875 78.550781 78.421875 78.734375 78.632812 78.964844 C 78.839844 79.191406 78.996094 79.460938 79.097656 79.753906 C 79.148438 79.902344 84.464844 95.007812 99.359375 98.214844 C 100.953125 98.554688 102.601562 98.535156 104.1875 98.160156 C 108.765625 97.082031 117.152344 93.402344 121.925781 80.882812 C 122.65625 79.019531 123.773438 77.335938 125.203125 75.9375 C 127.886719 73.242188 128.242188 70.066406 126.257812 66.5 C 125.96875 65.980469 125.894531 65.367188 126.058594 64.796875 C 126.222656 64.222656 126.605469 63.742188 127.125 63.449219 C 127.644531 63.160156 128.257812 63.089844 128.828125 63.253906 C 129.402344 63.414062 129.886719 63.800781 130.175781 64.320312 C 133.121094 69.613281 132.46875 75 128.375 79.101562 C 127.394531 80.054688 126.625 81.207031 126.117188 82.476562 C 120.605469 96.933594 110.65625 101.246094 105.21875 102.527344 C 104.046875 102.800781 102.847656 102.941406 101.644531 102.941406 Z M 101.644531 102.941406 " fill-opacity="1" fill-rule="nonzero"/><g clip-path="url(#d6b41a914f)"><path fill="#698519" d="M 101.046875 175.226562 L 44.421875 175.226562 C 43.828125 175.226562 43.257812 174.988281 42.835938 174.570312 C 42.417969 174.148438 42.179688 173.578125 42.179688 172.984375 L 42.179688 144.847656 C 42.179688 138.90625 44.085938 133.046875 47.695312 127.902344 C 51.253906 122.820312 56.390625 118.558594 62.550781 115.566406 L 68.59375 112.636719 C 68.9375 112.46875 69.316406 112.390625 69.699219 112.414062 C 70.082031 112.4375 70.453125 112.554688 70.777344 112.761719 L 89.914062 124.96875 C 90.167969 125.128906 90.386719 125.339844 90.554688 125.585938 C 90.726562 125.832031 90.84375 126.113281 90.90625 126.40625 C 90.964844 126.699219 90.964844 127.003906 90.90625 127.296875 C 90.847656 127.589844 90.730469 127.871094 90.5625 128.117188 L 87.003906 133.351562 L 102.71875 150.945312 C 103.085938 151.359375 103.289062 151.890625 103.289062 152.441406 L 103.289062 172.984375 C 103.289062 173.578125 103.050781 174.148438 102.628906 174.570312 C 102.210938 174.988281 101.640625 175.226562 101.046875 175.226562 Z M 46.664062 170.742188 L 98.804688 170.742188 L 98.804688 153.296875 L 82.492188 135.03125 C 82.15625 134.65625 81.957031 134.183594 81.925781 133.683594 C 81.894531 133.183594 82.027344 132.6875 82.308594 132.273438 L 85.554688 127.507812 L 69.421875 117.21875 L 64.507812 119.601562 C 59.035156 122.257812 54.488281 126.019531 51.367188 130.472656 C 48.289062 134.863281 46.664062 139.832031 46.664062 144.847656 Z M 46.664062 170.742188 " fill-opacity="1" fill-rule="nonzero"/></g><g clip-path="url(#d1a3d0ec96)"><path fill="#698519" d="M 69.570312 175.226562 C 68.976562 175.226562 68.40625 174.988281 67.984375 174.570312 C 67.5625 174.148438 67.328125 173.578125 67.328125 172.984375 L 67.328125 152.441406 C 67.328125 151.847656 67.5625 151.273438 67.984375 150.855469 C 68.40625 150.433594 68.976562 150.199219 69.570312 150.199219 C 70.164062 150.199219 70.734375 150.433594 71.15625 150.855469 C 71.578125 151.273438 71.8125 151.847656 71.8125 152.441406 L 71.8125 172.984375 C 71.8125 173.578125 71.578125 174.148438 71.15625 174.570312 C 70.734375 174.988281 70.164062 175.226562 69.570312 175.226562 Z M 69.570312 175.226562 " fill-opacity="1" fill-rule="nonzero"/></g><g clip-path="url(#a4b72be462)"><path fill="#698519" d="M 157.667969 175.226562 L 101.046875 175.226562 C 100.449219 175.226562 99.878906 174.988281 99.460938 174.570312 C 99.039062 174.148438 98.804688 173.578125 98.804688 172.984375 L 98.804688 152.441406 C 98.804688 151.890625 99.007812 151.359375 99.371094 150.945312 L 115.085938 133.347656 L 111.527344 128.117188 C 111.359375 127.871094 111.242188 127.589844 111.183594 127.296875 C 111.125 127.003906 111.125 126.699219 111.183594 126.40625 C 111.246094 126.113281 111.363281 125.832031 111.535156 125.585938 C 111.703125 125.339844 111.921875 125.128906 112.175781 124.96875 L 131.3125 112.761719 C 131.636719 112.554688 132.007812 112.4375 132.390625 112.414062 C 132.773438 112.390625 133.152344 112.46875 133.5 112.636719 L 139.539062 115.566406 C 145.699219 118.558594 150.835938 122.820312 154.394531 127.902344 C 158.003906 133.046875 159.910156 138.90625 159.910156 144.847656 L 159.910156 172.984375 C 159.910156 173.578125 159.671875 174.148438 159.253906 174.570312 C 158.832031 174.988281 158.261719 175.226562 157.667969 175.226562 Z M 103.289062 170.742188 L 155.425781 170.742188 L 155.425781 144.847656 C 155.425781 139.832031 153.800781 134.863281 150.722656 130.472656 C 147.601562 126.019531 143.054688 122.257812 137.582031 119.601562 L 132.667969 117.21875 L 116.535156 127.507812 L 119.78125 132.273438 C 120.0625 132.6875 120.199219 133.183594 120.164062 133.683594 C 120.132812 134.183594 119.933594 134.65625 119.597656 135.03125 L 103.289062 153.296875 Z M 103.289062 170.742188 " fill-opacity="1" fill-rule="nonzero"/></g><g clip-path="url(#3424079ada)"><path fill="#698519" d="M 132.519531 175.226562 C 131.925781 175.226562 131.355469 174.988281 130.933594 174.570312 C 130.511719 174.148438 130.277344 173.578125 130.277344 172.984375 L 130.277344 152.441406 C 130.277344 151.847656 130.511719 151.273438 130.933594 150.855469 C 131.355469 150.433594 131.925781 150.199219 132.519531 150.199219 C 133.113281 150.199219 133.683594 150.433594 134.105469 150.855469 C 134.523438 151.273438 134.761719 151.847656 134.761719 152.441406 L 134.761719 172.984375 C 134.761719 173.578125 134.523438 174.148438 134.105469 174.570312 C 133.683594 174.988281 133.113281 175.226562 132.519531 175.226562 Z M 132.519531 175.226562 " fill-opacity="1" fill-rule="nonzero"/></g><path fill="#698519" d="M 101.042969 128.96875 C 100.703125 128.96875 100.363281 128.890625 100.058594 128.738281 C 99.75 128.589844 99.480469 128.371094 99.273438 128.101562 L 84.664062 109.242188 C 84.460938 108.980469 84.320312 108.679688 84.246094 108.359375 C 84.175781 108.035156 84.175781 107.703125 84.246094 107.382812 L 86.855469 95.664062 C 86.988281 95.085938 87.34375 94.582031 87.84375 94.265625 C 88.34375 93.945312 88.953125 93.839844 89.53125 93.96875 C 90.109375 94.097656 90.613281 94.453125 90.933594 94.953125 C 91.253906 95.453125 91.359375 96.058594 91.234375 96.636719 L 88.851562 107.328125 L 101.042969 123.066406 L 113.308594 107.234375 L 111.855469 96.097656 C 111.816406 95.804688 111.835938 95.507812 111.910156 95.222656 C 111.988281 94.9375 112.117188 94.671875 112.296875 94.4375 C 112.476562 94.203125 112.703125 94.007812 112.957031 93.859375 C 113.210938 93.710938 113.496094 93.617188 113.785156 93.578125 C 114.078125 93.539062 114.375 93.558594 114.660156 93.636719 C 114.945312 93.714844 115.210938 93.84375 115.445312 94.023438 C 115.679688 94.207031 115.875 94.429688 116.023438 94.683594 C 116.167969 94.941406 116.265625 95.222656 116.300781 95.515625 L 117.878906 107.578125 C 117.914062 107.871094 117.894531 108.167969 117.816406 108.453125 C 117.742188 108.742188 117.609375 109.007812 117.425781 109.242188 L 102.816406 128.101562 C 102.609375 128.371094 102.339844 128.589844 102.03125 128.738281 C 101.722656 128.890625 101.386719 128.96875 101.042969 128.96875 Z M 101.042969 128.96875 " fill-opacity="1" fill-rule="nonzero"/><path fill="#698519" d="M 101.046875 154.683594 C 100.730469 154.683594 100.417969 154.617188 100.128906 154.488281 C 99.839844 154.359375 99.582031 154.167969 99.375 153.933594 L 82.492188 135.03125 C 82.160156 134.65625 81.960938 134.183594 81.925781 133.683594 C 81.894531 133.183594 82.027344 132.6875 82.308594 132.273438 L 85.554688 127.507812 L 68.367188 116.542969 C 68.019531 116.320312 67.738281 116.007812 67.558594 115.636719 C 67.375 115.269531 67.300781 114.855469 67.339844 114.445312 C 67.378906 114.035156 67.527344 113.644531 67.773438 113.3125 C 68.019531 112.980469 68.351562 112.726562 68.734375 112.570312 L 85.601562 105.789062 C 86.050781 105.605469 86.550781 105.578125 87.023438 105.703125 C 87.492188 105.832031 87.910156 106.109375 88.210938 106.496094 L 102.816406 125.351562 C 103.121094 125.746094 103.289062 126.230469 103.289062 126.726562 L 103.289062 152.441406 C 103.289062 153.035156 103.050781 153.605469 102.632812 154.027344 C 102.210938 154.445312 101.640625 154.683594 101.046875 154.683594 Z M 87.003906 133.347656 L 98.804688 146.5625 L 98.804688 127.492188 L 85.703125 110.582031 L 74.453125 115.105469 L 89.914062 124.96875 C 90.167969 125.128906 90.386719 125.339844 90.554688 125.585938 C 90.726562 125.832031 90.84375 126.113281 90.90625 126.40625 C 90.964844 126.699219 90.964844 127.003906 90.90625 127.296875 C 90.847656 127.589844 90.730469 127.871094 90.5625 128.117188 Z M 87.003906 133.347656 " fill-opacity="1" fill-rule="nonzero"/><path fill="#698519" d="M 101.042969 154.683594 C 100.449219 154.683594 99.878906 154.445312 99.460938 154.027344 C 99.039062 153.605469 98.804688 153.035156 98.804688 152.441406 L 98.804688 126.726562 C 98.804688 126.230469 98.96875 125.746094 99.273438 125.351562 L 113.882812 106.496094 C 114.179688 106.109375 114.597656 105.832031 115.066406 105.703125 C 115.539062 105.578125 116.039062 105.605469 116.492188 105.789062 L 133.355469 112.574219 C 133.738281 112.726562 134.070312 112.980469 134.316406 113.3125 C 134.5625 113.644531 134.714844 114.035156 134.75 114.445312 C 134.789062 114.855469 134.714844 115.269531 134.535156 115.636719 C 134.351562 116.007812 134.074219 116.320312 133.726562 116.542969 L 116.535156 127.507812 L 119.78125 132.273438 C 120.0625 132.6875 120.195312 133.183594 120.164062 133.683594 C 120.132812 134.183594 119.933594 134.65625 119.597656 135.03125 L 102.71875 153.933594 C 102.507812 154.167969 102.25 154.359375 101.960938 154.488281 C 101.671875 154.617188 101.359375 154.683594 101.042969 154.683594 Z M 103.289062 127.492188 L 103.289062 146.5625 L 115.085938 133.351562 L 111.527344 128.121094 C 111.359375 127.871094 111.242188 127.59375 111.183594 127.296875 C 111.125 127.003906 111.125 126.699219 111.183594 126.40625 C 111.246094 126.113281 111.363281 125.832031 111.535156 125.585938 C 111.703125 125.339844 111.921875 125.128906 112.175781 124.96875 L 127.636719 115.105469 L 116.390625 110.582031 Z M 103.289062 127.492188 " fill-opacity="1" fill-rule="nonzero"/><path fill="#698519" d="M 135.703125 144.929688 C 134.085938 144.929688 132.503906 144.449219 131.15625 143.550781 C 129.8125 142.648438 128.761719 141.371094 128.140625 139.875 C 127.523438 138.382812 127.363281 136.734375 127.675781 135.148438 C 127.992188 133.5625 128.773438 132.101562 129.917969 130.960938 C 131.0625 129.816406 132.519531 129.035156 134.105469 128.71875 C 135.695312 128.402344 137.339844 128.566406 138.835938 129.183594 C 140.328125 129.804688 141.609375 130.851562 142.507812 132.199219 C 143.40625 133.546875 143.886719 135.128906 143.886719 136.746094 C 143.882812 138.914062 143.019531 140.996094 141.488281 142.527344 C 139.953125 144.0625 137.871094 144.925781 135.703125 144.929688 Z M 135.703125 133.046875 C 134.972656 133.046875 134.257812 133.261719 133.648438 133.671875 C 133.039062 134.078125 132.566406 134.652344 132.285156 135.328125 C 132.007812 136.003906 131.933594 136.75 132.074219 137.464844 C 132.21875 138.183594 132.570312 138.84375 133.085938 139.359375 C 133.605469 139.878906 134.261719 140.230469 134.980469 140.371094 C 135.699219 140.515625 136.441406 140.441406 137.117188 140.164062 C 137.792969 139.882812 138.371094 139.410156 138.777344 138.800781 C 139.183594 138.191406 139.402344 137.476562 139.402344 136.746094 C 139.398438 135.765625 139.011719 134.824219 138.316406 134.132812 C 137.625 133.4375 136.683594 133.046875 135.703125 133.046875 Z M 135.703125 133.046875 " fill-opacity="1" fill-rule="nonzero"/><path fill="#698519" d="M 138.328125 133.660156 C 137.910156 133.660156 137.496094 133.542969 137.140625 133.316406 C 136.785156 133.09375 136.5 132.777344 136.316406 132.398438 C 136.132812 132.019531 136.058594 131.597656 136.101562 131.179688 C 136.144531 130.761719 136.308594 130.363281 136.566406 130.035156 C 136.628906 129.953125 140.414062 124.992188 139.464844 119.65625 C 139.410156 119.367188 139.417969 119.070312 139.480469 118.78125 C 139.542969 118.492188 139.664062 118.222656 139.832031 117.980469 C 140 117.738281 140.214844 117.53125 140.460938 117.371094 C 140.710938 117.214844 140.988281 117.105469 141.277344 117.054688 C 141.566406 117.003906 141.863281 117.007812 142.152344 117.070312 C 142.441406 117.136719 142.710938 117.253906 142.953125 117.421875 C 143.195312 117.589844 143.402344 117.804688 143.558594 118.054688 C 143.71875 118.300781 143.828125 118.578125 143.878906 118.867188 C 145.191406 126.234375 140.300781 132.542969 140.09375 132.804688 C 139.882812 133.070312 139.613281 133.289062 139.308594 133.4375 C 139.003906 133.582031 138.667969 133.660156 138.328125 133.660156 Z M 138.328125 133.660156 " fill-opacity="1" fill-rule="nonzero"/><path fill="#698519" d="M 60.050781 151.945312 C 59.097656 151.945312 58.171875 151.617188 57.429688 151.019531 C 56.691406 150.421875 56.175781 149.585938 55.96875 148.65625 L 54.671875 142.714844 C 54.308594 141.066406 54.277344 139.367188 54.574219 137.703125 C 54.871094 136.042969 55.492188 134.457031 56.402344 133.039062 C 57.308594 131.617188 58.492188 130.390625 59.875 129.425781 C 61.261719 128.460938 62.820312 127.78125 64.46875 127.421875 C 66.117188 127.058594 67.820312 127.027344 69.480469 127.328125 C 71.140625 127.625 72.726562 128.246094 74.144531 129.15625 C 75.566406 130.070312 76.792969 131.25 77.753906 132.636719 C 78.71875 134.019531 79.398438 135.582031 79.753906 137.230469 L 81.054688 143.171875 C 81.171875 143.707031 81.183594 144.261719 81.085938 144.804688 C 80.988281 145.34375 80.785156 145.859375 80.488281 146.324219 C 80.191406 146.785156 79.808594 147.183594 79.355469 147.5 C 78.90625 147.8125 78.398438 148.035156 77.859375 148.152344 C 77.304688 148.273438 76.722656 148.179688 76.234375 147.886719 C 75.746094 147.597656 75.386719 147.132812 75.230469 146.585938 C 75.070312 146.039062 75.125 145.453125 75.382812 144.945312 C 75.640625 144.441406 76.078125 144.050781 76.613281 143.855469 L 75.375 138.1875 C 75.140625 137.117188 74.699219 136.101562 74.074219 135.199219 C 73.445312 134.296875 72.648438 133.527344 71.722656 132.933594 C 70.800781 132.339844 69.769531 131.9375 68.6875 131.742188 C 67.609375 131.546875 66.5 131.570312 65.425781 131.804688 C 64.355469 132.039062 63.339844 132.480469 62.4375 133.109375 C 61.539062 133.738281 60.769531 134.535156 60.175781 135.460938 C 59.585938 136.382812 59.179688 137.417969 58.988281 138.496094 C 58.796875 139.578125 58.816406 140.6875 59.050781 141.757812 L 60.292969 147.421875 C 60.859375 147.378906 61.421875 147.550781 61.867188 147.902344 C 62.3125 148.257812 62.605469 148.765625 62.691406 149.328125 C 62.773438 149.890625 62.640625 150.464844 62.316406 150.929688 C 61.996094 151.398438 61.507812 151.726562 60.953125 151.847656 C 60.65625 151.914062 60.351562 151.945312 60.050781 151.945312 Z M 60.050781 151.945312 " fill-opacity="1" fill-rule="nonzero"/><path fill="#698519" d="M 63.234375 132.398438 C 62.789062 132.398438 62.351562 132.265625 61.984375 132.015625 C 61.613281 131.765625 61.324219 131.414062 61.15625 131 C 61.132812 130.945312 58.855469 125.347656 57.144531 120.773438 C 56.9375 120.214844 56.960938 119.597656 57.207031 119.058594 C 57.453125 118.515625 57.902344 118.097656 58.460938 117.886719 C 59.019531 117.679688 59.636719 117.703125 60.175781 117.949219 C 60.71875 118.195312 61.136719 118.648438 61.347656 119.203125 C 63.03125 123.71875 65.289062 129.253906 65.308594 129.308594 C 65.449219 129.648438 65.5 130.019531 65.464844 130.382812 C 65.425781 130.75 65.300781 131.101562 65.09375 131.40625 C 64.890625 131.710938 64.613281 131.960938 64.289062 132.132812 C 63.964844 132.304688 63.601562 132.398438 63.234375 132.398438 Z M 63.234375 132.398438 " fill-opacity="1" fill-rule="nonzero"/></svg>