<svg xmlns="http://www.w3.org/2000/svg" xmlns:xlink="http://www.w3.org/1999/xlink" width="271" zoomAndPan="magnify" viewBox="0 0 203.25 203.249996" height="271" preserveAspectRatio="xMidYMid meet" version="1.0"><defs><clipPath id="71e6344086"><path d="M 56 160 L 151 160 L 151 180.679688 L 56 180.679688 Z M 56 160 " clip-rule="nonzero"/></clipPath><clipPath id="53950b6e1f"><path d="M 43.167969 117 L 102 117 L 102 131 L 43.167969 131 Z M 43.167969 117 " clip-rule="nonzero"/></clipPath><clipPath id="cb16978e9a"><path d="M 125 68 L 156 68 L 156 150 L 125 150 Z M 125 68 " clip-rule="nonzero"/></clipPath><clipPath id="c058d6600d"><path d="M 115 24.503906 L 143 24.503906 L 143 51 L 115 51 Z M 115 24.503906 " clip-rule="nonzero"/></clipPath></defs><g clip-path="url(#71e6344086)"><path fill="#1b1f6f" d="M 145.347656 180.785156 L 61.339844 180.785156 C 58.402344 180.785156 56.035156 178.421875 56.035156 175.484375 L 56.035156 166.160156 C 56.035156 163.222656 58.402344 160.855469 61.339844 160.855469 L 145.3125 160.855469 C 148.253906 160.855469 150.617188 163.222656 150.617188 166.160156 L 150.617188 175.449219 C 150.652344 178.386719 148.253906 180.785156 145.347656 180.785156 Z M 61.339844 164.910156 C 60.664062 164.910156 60.089844 165.484375 60.089844 166.160156 L 60.089844 175.449219 C 60.089844 176.125 60.664062 176.699219 61.339844 176.699219 L 145.3125 176.699219 C 145.988281 176.699219 146.5625 176.125 146.5625 175.449219 L 146.5625 166.160156 C 146.5625 165.484375 145.988281 164.910156 145.3125 164.910156 Z M 61.339844 164.910156 " fill-opacity="1" fill-rule="nonzero"/></g><path fill="#1b1f6f" d="M 136.769531 164.910156 C 136.023438 164.910156 135.316406 164.503906 134.945312 163.796875 L 120.65625 135.050781 C 119.914062 133.5625 118.796875 132.347656 117.414062 131.46875 C 116.027344 130.589844 114.40625 130.152344 112.75 130.152344 C 107.886719 130.152344 103.902344 134.105469 103.902344 138.96875 L 103.902344 162.851562 C 103.902344 163.964844 102.988281 164.875 101.875 164.875 C 100.757812 164.875 99.847656 163.964844 99.847656 162.851562 L 99.847656 138.96875 C 99.847656 131.875 105.625 126.097656 112.75 126.097656 C 115.148438 126.097656 117.480469 126.773438 119.539062 128.023438 C 121.566406 129.273438 123.222656 131.097656 124.304688 133.226562 L 138.625 161.972656 C 139.132812 162.984375 138.726562 164.199219 137.714844 164.671875 C 137.375 164.84375 137.070312 164.910156 136.769531 164.910156 Z M 136.769531 164.910156 " fill-opacity="1" fill-rule="nonzero"/><path fill="#1b1f6f" d="M 112.648438 142.378906 C 110.792969 142.378906 109.304688 140.894531 109.304688 139.035156 C 109.304688 137.175781 110.792969 135.691406 112.648438 135.691406 C 114.507812 135.691406 115.992188 137.175781 115.992188 139.035156 C 115.992188 140.894531 114.472656 142.378906 112.648438 142.378906 Z M 112.648438 138.328125 C 112.246094 138.328125 111.941406 138.628906 111.941406 139.035156 C 111.941406 139.441406 112.246094 139.746094 112.648438 139.746094 C 113.054688 139.746094 113.359375 139.441406 113.359375 139.035156 C 113.359375 138.628906 113.019531 138.328125 112.648438 138.328125 Z M 112.648438 138.328125 " fill-opacity="1" fill-rule="nonzero"/><g clip-path="url(#53950b6e1f)"><path fill="#1b1f6f" d="M 99.207031 130.183594 L 45.195312 130.183594 C 44.078125 130.183594 43.167969 129.273438 43.167969 128.160156 L 43.167969 119.546875 C 43.167969 118.429688 44.078125 117.519531 45.195312 117.519531 L 99.207031 117.519531 C 100.320312 117.519531 101.234375 118.429688 101.234375 119.546875 L 101.234375 128.125 C 101.234375 129.273438 100.320312 130.183594 99.207031 130.183594 Z M 47.21875 126.132812 L 97.179688 126.132812 L 97.179688 121.570312 L 47.21875 121.570312 Z M 47.21875 126.132812 " fill-opacity="1" fill-rule="nonzero"/></g><g clip-path="url(#cb16978e9a)"><path fill="#1b1f6f" d="M 128.929688 149.167969 C 128.15625 149.167969 127.410156 148.695312 127.074219 147.953125 C 126.632812 146.941406 127.105469 145.722656 128.121094 145.285156 C 128.324219 145.21875 128.492188 145.117188 128.695312 145.046875 C 137.410156 141.097656 143.863281 135.320312 147.8125 127.820312 C 156.054688 112.28125 152.273438 90.496094 139.335938 79.28125 C 135.890625 76.273438 131.769531 74.046875 127.105469 72.59375 C 126.027344 72.253906 125.453125 71.105469 125.789062 70.058594 C 126.128906 68.976562 127.277344 68.402344 128.324219 68.742188 C 133.523438 70.363281 138.121094 72.894531 141.96875 76.242188 C 148.894531 82.253906 153.726562 91.070312 155.515625 101.066406 C 157.339844 111.132812 155.851562 121.335938 151.394531 129.746094 C 148.355469 135.453125 142.273438 143.359375 130.382812 148.765625 C 130.179688 148.863281 129.976562 148.964844 129.742188 149.035156 C 129.472656 149.136719 129.203125 149.167969 128.929688 149.167969 Z M 128.929688 149.167969 " fill-opacity="1" fill-rule="nonzero"/></g><path fill="#1b1f6f" d="M 101.875 152.109375 C 101.773438 152.109375 101.636719 152.109375 101.535156 152.074219 C 90.085938 150.148438 78.464844 144.710938 69.617188 137.109375 C 66.914062 134.78125 64.378906 132.179688 62.152344 129.410156 C 61.441406 128.53125 61.574219 127.246094 62.453125 126.570312 C 63.332031 125.863281 64.617188 125.996094 65.292969 126.875 C 67.386719 129.476562 69.71875 131.875 72.214844 134.035156 C 80.492188 141.164062 91.402344 146.265625 102.144531 148.054688 C 103.257812 148.222656 104.003906 149.269531 103.800781 150.386719 C 103.730469 151.398438 102.855469 152.109375 101.875 152.109375 Z M 101.875 152.109375 " fill-opacity="1" fill-rule="nonzero"/><path fill="#1b1f6f" d="M 122.511719 136.300781 C 121.738281 136.300781 120.992188 135.859375 120.65625 135.082031 C 120.214844 134.070312 120.65625 132.855469 121.667969 132.414062 C 131.734375 127.921875 138.792969 118.296875 138.761719 108.972656 C 138.761719 99.785156 131.871094 92.65625 131.601562 92.351562 C 129.203125 89.886719 126.296875 87.960938 122.984375 86.609375 C 121.9375 86.207031 121.433594 85.023438 121.871094 83.976562 C 122.277344 82.929688 123.460938 82.421875 124.507812 82.859375 C 128.324219 84.414062 131.667969 86.644531 134.472656 89.515625 C 135.316406 90.394531 142.78125 98.332031 142.78125 108.972656 C 142.78125 119.847656 134.773438 130.996094 123.257812 136.097656 C 123.085938 136.230469 122.785156 136.300781 122.511719 136.300781 Z M 122.511719 136.300781 " fill-opacity="1" fill-rule="nonzero"/><path fill="#1b1f6f" d="M 102.617188 137.144531 C 102.382812 137.144531 102.109375 137.109375 101.875 137.007812 C 97.886719 135.453125 94.039062 132.886719 90.761719 129.578125 C 89.984375 128.800781 89.984375 127.515625 90.761719 126.707031 C 91.539062 125.929688 92.820312 125.929688 93.632812 126.707031 C 96.539062 129.609375 99.914062 131.875 103.359375 133.191406 C 104.40625 133.597656 104.914062 134.78125 104.507812 135.828125 C 104.171875 136.636719 103.429688 137.144531 102.617188 137.144531 Z M 102.617188 137.144531 " fill-opacity="1" fill-rule="nonzero"/><path fill="#1b1f6f" d="M 117.242188 87.726562 C 112.445312 87.726562 108.15625 85.058594 106.0625 80.765625 C 105.21875 79.042969 104.78125 77.1875 104.78125 75.226562 C 104.78125 68.335938 110.386719 62.761719 117.242188 62.761719 C 118.628906 62.761719 119.980469 63 121.261719 63.4375 C 126.332031 65.160156 129.707031 69.925781 129.707031 75.261719 C 129.742188 82.117188 124.132812 87.726562 117.242188 87.726562 Z M 117.242188 66.816406 C 112.582031 66.816406 108.832031 70.597656 108.832031 75.226562 C 108.832031 76.542969 109.136719 77.792969 109.710938 78.941406 C 111.128906 81.847656 114.035156 83.636719 117.277344 83.636719 C 121.9375 83.636719 125.6875 79.855469 125.6875 75.226562 C 125.6875 71.613281 123.390625 68.402344 119.980469 67.253906 C 119.101562 66.984375 118.191406 66.816406 117.242188 66.816406 Z M 117.242188 66.816406 " fill-opacity="1" fill-rule="nonzero"/><path fill="#1b1f6f" d="M 91.539062 99.175781 C 90.390625 99.175781 89.273438 98.738281 88.429688 97.925781 L 72.554688 82.996094 C 70.765625 81.308594 70.628906 78.539062 72.25 76.679688 L 105.183594 39.386719 C 106.839844 37.53125 109.710938 37.328125 111.570312 38.984375 L 127.851562 53.238281 C 128.761719 54.046875 129.304688 55.128906 129.371094 56.34375 C 129.4375 57.5625 129.066406 58.710938 128.253906 59.621094 L 122.109375 66.648438 C 121.566406 67.253906 120.722656 67.492188 119.945312 67.222656 C 119.066406 66.917969 118.15625 66.78125 117.210938 66.78125 C 112.546875 66.78125 108.800781 70.566406 108.800781 75.195312 C 108.800781 76.511719 109.101562 77.761719 109.675781 78.910156 C 110.050781 79.652344 109.914062 80.53125 109.375 81.136719 L 94.984375 97.65625 C 94.171875 98.601562 93.023438 99.144531 91.773438 99.210938 C 91.707031 99.175781 91.640625 99.175781 91.539062 99.175781 Z M 108.628906 41.921875 C 108.496094 41.921875 108.359375 41.988281 108.257812 42.089844 L 75.324219 79.382812 C 75.15625 79.585938 75.15625 79.890625 75.359375 80.058594 L 91.234375 94.988281 C 91.371094 95.121094 91.503906 95.121094 91.605469 95.121094 C 91.707031 95.121094 91.84375 95.089844 91.945312 94.953125 L 105.523438 79.484375 C 105.015625 78.132812 104.78125 76.714844 104.78125 75.226562 C 104.78125 68.335938 110.386719 62.761719 117.242188 62.761719 C 118.15625 62.761719 119.066406 62.863281 119.945312 63.066406 L 125.25 57.019531 C 125.351562 56.886719 125.382812 56.75 125.382812 56.683594 C 125.382812 56.582031 125.351562 56.445312 125.214844 56.34375 L 108.933594 42.089844 C 108.867188 41.953125 108.730469 41.921875 108.628906 41.921875 Z M 108.628906 41.921875 " fill-opacity="1" fill-rule="nonzero"/><path fill="#1b1f6f" d="M 78.601562 106.234375 C 77.484375 106.234375 76.40625 105.832031 75.5625 105.054688 L 66.574219 96.710938 C 64.820312 95.089844 64.648438 92.386719 66.203125 90.527344 L 73.804688 81.511719 C 74.511719 80.664062 75.796875 80.53125 76.675781 81.273438 C 77.519531 81.984375 77.65625 83.265625 76.910156 84.144531 L 69.3125 93.164062 C 69.175781 93.332031 69.175781 93.601562 69.34375 93.738281 L 78.332031 102.082031 C 78.433594 102.183594 78.566406 102.183594 78.632812 102.183594 C 78.703125 102.183594 78.835938 102.148438 78.9375 102.046875 L 86.371094 93.367188 C 87.113281 92.523438 88.363281 92.421875 89.242188 93.128906 C 90.085938 93.875 90.1875 95.121094 89.476562 96 L 82.046875 104.683594 C 81.234375 105.628906 80.121094 106.167969 78.90625 106.234375 C 78.769531 106.234375 78.667969 106.234375 78.601562 106.234375 Z M 78.601562 106.234375 " fill-opacity="1" fill-rule="nonzero"/><path fill="#1b1f6f" d="M 112.683594 44.082031 C 112.144531 44.082031 111.601562 43.847656 111.199219 43.441406 C 110.453125 42.628906 110.488281 41.347656 111.332031 40.570312 L 118.15625 34.289062 C 118.964844 33.542969 120.25 33.578125 121.027344 34.421875 C 121.769531 35.234375 121.738281 36.515625 120.890625 37.292969 L 114.070312 43.542969 C 113.664062 43.914062 113.15625 44.082031 112.683594 44.082031 Z M 112.683594 44.082031 " fill-opacity="1" fill-rule="nonzero"/><path fill="#1b1f6f" d="M 125.789062 55.667969 C 125.316406 55.667969 124.878906 55.5 124.472656 55.195312 C 123.628906 54.488281 123.527344 53.203125 124.234375 52.324219 L 129.777344 45.773438 C 130.484375 44.925781 131.769531 44.828125 132.648438 45.535156 C 133.492188 46.246094 133.59375 47.527344 132.882812 48.40625 L 127.34375 54.960938 C 126.9375 55.398438 126.363281 55.667969 125.789062 55.667969 Z M 125.789062 55.667969 " fill-opacity="1" fill-rule="nonzero"/><g clip-path="url(#c058d6600d)"><path fill="#1b1f6f" d="M 134.335938 50.164062 C 133.457031 50.164062 132.578125 49.859375 131.871094 49.183594 L 116.871094 35.265625 C 116.164062 34.589844 115.757812 33.714844 115.722656 32.734375 C 115.691406 31.753906 116.027344 30.839844 116.703125 30.132812 L 121.296875 25.167969 C 121.667969 24.761719 122.175781 24.523438 122.714844 24.523438 C 123.257812 24.492188 123.761719 24.695312 124.167969 25.066406 L 141.496094 41.179688 C 141.902344 41.550781 142.140625 42.054688 142.140625 42.597656 C 142.171875 43.136719 141.96875 43.644531 141.597656 44.050781 L 137.003906 49.015625 C 136.296875 49.792969 135.316406 50.164062 134.335938 50.164062 Z M 119.914062 32.597656 L 134.335938 45.941406 L 137.273438 42.765625 L 122.851562 29.421875 Z M 119.914062 32.597656 " fill-opacity="1" fill-rule="nonzero"/></g></svg>