<svg xmlns="http://www.w3.org/2000/svg" xmlns:xlink="http://www.w3.org/1999/xlink" width="271" zoomAndPan="magnify" viewBox="0 0 203.25 203.249996" height="271" preserveAspectRatio="xMidYMid meet" version="1.0"><defs><clipPath id="097004a353"><path d="M 36 35 L 168.679688 35 L 168.679688 168 L 36 168 Z M 36 35 " clip-rule="nonzero"/></clipPath></defs><g clip-path="url(#097004a353)"><path fill="#0b43e6" d="M 141.214844 49.414062 C 138.375 49.410156 135.605469 49.839844 132.902344 50.714844 C 132.664062 50.238281 132.410156 49.769531 132.144531 49.308594 C 131.878906 48.84375 131.597656 48.390625 131.304688 47.945312 C 131.011719 47.5 130.707031 47.066406 130.386719 46.636719 C 130.070312 46.210938 129.738281 45.792969 129.394531 45.386719 C 129.050781 44.976562 128.695312 44.582031 128.328125 44.195312 C 127.960938 43.808594 127.582031 43.433594 127.191406 43.066406 C 126.800781 42.703125 126.402344 42.351562 125.992188 42.011719 C 125.582031 41.667969 125.160156 41.339844 124.730469 41.027344 C 124.300781 40.710938 123.863281 40.40625 123.417969 40.117188 C 122.96875 39.828125 122.511719 39.550781 122.050781 39.289062 C 121.585938 39.023438 121.113281 38.777344 120.636719 38.542969 C 120.15625 38.304688 119.671875 38.085938 119.179688 37.878906 C 118.6875 37.671875 118.191406 37.480469 117.6875 37.304688 C 117.183594 37.128906 116.675781 36.964844 116.164062 36.820312 C 115.652344 36.671875 115.136719 36.539062 114.613281 36.425781 C 114.09375 36.308594 113.570312 36.207031 113.042969 36.121094 C 112.519531 36.035156 111.988281 35.964844 111.460938 35.914062 C 110.929688 35.859375 110.398438 35.820312 109.863281 35.796875 C 109.332031 35.773438 108.796875 35.765625 108.265625 35.777344 C 107.730469 35.785156 107.199219 35.808594 106.667969 35.851562 C 106.136719 35.890625 105.605469 35.945312 105.078125 36.015625 C 104.550781 36.089844 104.023438 36.175781 103.5 36.277344 C 102.976562 36.382812 102.457031 36.5 101.941406 36.632812 C 101.425781 36.765625 100.914062 36.914062 100.40625 37.078125 C 99.898438 37.242188 99.394531 37.421875 98.898438 37.613281 C 98.402344 37.808594 97.910156 38.015625 97.425781 38.238281 C 96.941406 38.460938 96.464844 38.699219 95.992188 38.949219 C 95.523438 39.199219 95.0625 39.464844 94.605469 39.742188 C 94.152344 40.019531 93.703125 40.3125 93.265625 40.613281 C 92.828125 40.917969 92.398438 41.238281 91.980469 41.566406 C 91.5625 41.894531 91.152344 42.238281 90.753906 42.59375 C 90.355469 42.945312 89.96875 43.3125 89.589844 43.6875 L 44.070312 89.195312 C 43.457031 89.824219 42.875 90.480469 42.324219 91.164062 C 41.777344 91.851562 41.261719 92.5625 40.78125 93.296875 C 40.300781 94.035156 39.855469 94.789062 39.449219 95.570312 C 39.042969 96.347656 38.675781 97.144531 38.347656 97.960938 C 38.019531 98.777344 37.730469 99.605469 37.480469 100.449219 C 37.234375 101.289062 37.027344 102.144531 36.863281 103.007812 C 36.695312 103.871094 36.574219 104.738281 36.496094 105.613281 C 36.414062 106.488281 36.378906 107.367188 36.382812 108.246094 C 36.386719 109.125 36.4375 110 36.527344 110.875 C 36.617188 111.75 36.75 112.617188 36.925781 113.476562 C 37.101562 114.339844 37.316406 115.1875 37.578125 116.027344 C 37.835938 116.867188 38.132812 117.695312 38.472656 118.503906 C 38.8125 119.316406 39.1875 120.109375 39.605469 120.882812 C 40.019531 121.65625 40.472656 122.40625 40.960938 123.136719 C 41.453125 123.867188 41.976562 124.570312 42.535156 125.25 C 43.09375 125.929688 43.683594 126.578125 44.304688 127.203125 C 44.925781 127.824219 45.574219 128.414062 46.253906 128.96875 C 46.933594 129.527344 47.636719 130.050781 48.367188 130.539062 C 49.097656 131.03125 49.847656 131.484375 50.625 131.898438 C 51.398438 132.316406 52.191406 132.691406 53 133.03125 C 53.8125 133.371094 54.636719 133.667969 55.476562 133.925781 C 56.316406 134.183594 57.167969 134.402344 58.027344 134.574219 C 58.890625 134.75 59.757812 134.882812 60.632812 134.976562 C 61.503906 135.066406 62.382812 135.113281 63.261719 135.117188 C 64.140625 135.125 65.015625 135.085938 65.890625 135.003906 C 66.765625 134.925781 67.636719 134.804688 68.5 134.636719 C 69.363281 134.472656 70.214844 134.265625 71.058594 134.019531 C 71.902344 133.769531 72.730469 133.480469 73.542969 133.152344 C 74.359375 132.824219 75.15625 132.457031 75.933594 132.046875 C 76.714844 131.640625 77.472656 131.199219 78.207031 130.71875 C 78.941406 130.238281 79.652344 129.722656 80.339844 129.171875 C 81.023438 128.621094 81.683594 128.039062 82.3125 127.425781 L 114.148438 95.558594 L 114.148438 140.820312 C 114.148438 141.707031 114.191406 142.589844 114.277344 143.472656 C 114.363281 144.355469 114.492188 145.230469 114.667969 146.097656 C 114.839844 146.96875 115.054688 147.828125 115.3125 148.675781 C 115.566406 149.523438 115.867188 150.355469 116.203125 151.175781 C 116.542969 151.996094 116.921875 152.796875 117.339844 153.578125 C 117.757812 154.359375 118.210938 155.117188 118.703125 155.855469 C 119.195312 156.59375 119.722656 157.304688 120.285156 157.988281 C 120.847656 158.675781 121.441406 159.332031 122.066406 159.957031 C 122.695312 160.582031 123.351562 161.179688 124.035156 161.742188 C 124.71875 162.304688 125.429688 162.832031 126.167969 163.324219 C 126.90625 163.816406 127.664062 164.269531 128.445312 164.6875 C 129.226562 165.105469 130.027344 165.484375 130.847656 165.824219 C 131.664062 166.164062 132.5 166.460938 133.347656 166.71875 C 134.195312 166.976562 135.054688 167.191406 135.921875 167.367188 C 136.792969 167.539062 137.667969 167.667969 138.550781 167.753906 C 139.429688 167.84375 140.316406 167.886719 141.203125 167.886719 C 142.089844 167.886719 142.972656 167.84375 143.855469 167.753906 C 144.738281 167.667969 145.613281 167.539062 146.480469 167.367188 C 147.351562 167.191406 148.210938 166.976562 149.058594 166.71875 C 149.90625 166.460938 150.738281 166.164062 151.558594 165.824219 C 152.375 165.484375 153.175781 165.105469 153.957031 164.6875 C 154.738281 164.269531 155.5 163.816406 156.234375 163.324219 C 156.972656 162.832031 157.683594 162.304688 158.367188 161.742188 C 159.054688 161.179688 159.710938 160.582031 160.335938 159.957031 C 160.960938 159.332031 161.558594 158.675781 162.117188 157.988281 C 162.679688 157.304688 163.207031 156.59375 163.699219 155.855469 C 164.191406 155.117188 164.648438 154.359375 165.066406 153.578125 C 165.480469 152.796875 165.859375 151.996094 166.199219 151.175781 C 166.539062 150.355469 166.835938 149.523438 167.09375 148.675781 C 167.351562 147.828125 167.566406 146.96875 167.738281 146.097656 C 167.910156 145.230469 168.039062 144.355469 168.125 143.472656 C 168.210938 142.589844 168.253906 141.707031 168.253906 140.820312 L 168.253906 76.453125 C 168.253906 75.570312 168.210938 74.6875 168.121094 73.804688 C 168.035156 72.921875 167.902344 72.050781 167.730469 71.179688 C 167.558594 70.3125 167.34375 69.457031 167.085938 68.609375 C 166.828125 67.761719 166.527344 66.929688 166.1875 66.109375 C 165.851562 65.292969 165.472656 64.496094 165.054688 63.714844 C 164.636719 62.933594 164.179688 62.175781 163.6875 61.4375 C 163.199219 60.703125 162.671875 59.992188 162.109375 59.308594 C 161.546875 58.625 160.953125 57.96875 160.328125 57.34375 C 159.699219 56.71875 159.046875 56.125 158.363281 55.5625 C 157.675781 55 156.96875 54.472656 156.230469 53.980469 C 155.496094 53.488281 154.738281 53.035156 153.957031 52.617188 C 153.175781 52.199219 152.375 51.820312 151.558594 51.480469 C 150.742188 51.140625 149.910156 50.84375 149.0625 50.585938 C 148.214844 50.328125 147.355469 50.113281 146.488281 49.9375 C 145.621094 49.765625 144.746094 49.636719 143.867188 49.546875 C 142.984375 49.460938 142.101562 49.417969 141.214844 49.414062 Z M 93.5625 47.652344 C 94.0625 47.175781 94.582031 46.726562 95.125 46.304688 C 95.667969 45.878906 96.234375 45.480469 96.8125 45.113281 C 97.394531 44.742188 97.996094 44.402344 98.609375 44.089844 C 99.222656 43.777344 99.851562 43.496094 100.496094 43.242188 C 101.136719 42.992188 101.789062 42.773438 102.453125 42.582031 C 103.117188 42.394531 103.789062 42.238281 104.464844 42.117188 C 105.144531 41.992188 105.828125 41.902344 106.515625 41.84375 C 107.203125 41.785156 107.890625 41.761719 108.578125 41.769531 C 109.269531 41.78125 109.957031 41.820312 110.640625 41.898438 C 111.328125 41.972656 112.007812 42.078125 112.683594 42.222656 C 113.355469 42.363281 114.023438 42.535156 114.683594 42.742188 C 115.339844 42.945312 115.988281 43.183594 116.621094 43.449219 C 117.257812 43.71875 117.878906 44.015625 118.484375 44.34375 C 119.09375 44.671875 119.683594 45.027344 120.253906 45.414062 C 120.828125 45.796875 121.378906 46.207031 121.910156 46.648438 C 122.445312 47.085938 122.953125 47.546875 123.441406 48.035156 C 123.929688 48.523438 124.394531 49.03125 124.832031 49.5625 C 125.269531 50.097656 125.683594 50.648438 126.066406 51.21875 C 126.453125 51.792969 126.808594 52.382812 127.136719 52.988281 C 127.464844 53.59375 127.765625 54.214844 128.03125 54.851562 C 128.300781 55.484375 128.539062 56.132812 128.746094 56.789062 C 128.949219 57.449219 129.125 58.113281 129.265625 58.789062 C 129.40625 59.464844 129.515625 60.144531 129.59375 60.828125 C 129.667969 61.515625 129.710938 62.203125 129.71875 62.890625 C 129.730469 63.582031 129.707031 64.269531 129.648438 64.957031 C 129.589844 65.644531 129.5 66.328125 129.378906 67.003906 C 129.253906 67.683594 129.101562 68.355469 128.914062 69.019531 C 128.726562 69.683594 128.503906 70.335938 128.253906 70.976562 C 128.003906 71.621094 127.722656 72.25 127.410156 72.863281 C 127.097656 73.480469 126.757812 74.078125 126.390625 74.660156 C 126.019531 75.242188 125.625 75.804688 125.199219 76.347656 C 124.777344 76.894531 124.328125 77.414062 123.851562 77.914062 L 102.324219 99.464844 L 72.039062 69.175781 Z M 78.3125 123.457031 C 77.8125 123.929688 77.289062 124.378906 76.746094 124.804688 C 76.203125 125.226562 75.636719 125.625 75.054688 125.992188 C 74.472656 126.363281 73.875 126.703125 73.261719 127.015625 C 72.644531 127.324219 72.015625 127.605469 71.375 127.859375 C 70.730469 128.109375 70.078125 128.328125 69.414062 128.515625 C 68.75 128.703125 68.082031 128.859375 67.402344 128.980469 C 66.722656 129.105469 66.039062 129.195312 65.355469 129.25 C 64.667969 129.308594 63.976562 129.332031 63.289062 129.324219 C 62.597656 129.3125 61.910156 129.269531 61.226562 129.195312 C 60.539062 129.121094 59.859375 129.011719 59.1875 128.867188 C 58.511719 128.726562 57.84375 128.554688 57.1875 128.347656 C 56.527344 128.140625 55.882812 127.90625 55.246094 127.636719 C 54.609375 127.367188 53.992188 127.070312 53.382812 126.742188 C 52.777344 126.414062 52.1875 126.054688 51.617188 125.671875 C 51.042969 125.285156 50.492188 124.875 49.960938 124.433594 C 49.429688 123.996094 48.917969 123.53125 48.429688 123.046875 C 47.945312 122.558594 47.480469 122.046875 47.042969 121.515625 C 46.605469 120.980469 46.195312 120.429688 45.808594 119.859375 C 45.425781 119.285156 45.066406 118.695312 44.742188 118.089844 C 44.414062 117.484375 44.113281 116.863281 43.847656 116.226562 C 43.578125 115.589844 43.34375 114.945312 43.136719 114.285156 C 42.933594 113.628906 42.757812 112.960938 42.617188 112.285156 C 42.476562 111.609375 42.367188 110.929688 42.292969 110.246094 C 42.21875 109.558594 42.175781 108.871094 42.167969 108.183594 C 42.160156 107.492188 42.183594 106.804688 42.242188 106.117188 C 42.296875 105.429688 42.390625 104.746094 42.511719 104.070312 C 42.636719 103.390625 42.792969 102.71875 42.980469 102.054688 C 43.167969 101.394531 43.386719 100.742188 43.640625 100.097656 C 43.890625 99.457031 44.171875 98.828125 44.484375 98.210938 C 44.796875 97.597656 45.136719 97 45.507812 96.417969 C 45.878906 95.835938 46.277344 95.273438 46.699219 94.730469 C 47.125 94.1875 47.574219 93.664062 48.046875 93.164062 L 68.058594 73.152344 L 98.347656 103.4375 Z M 156.308594 155.960938 C 155.5625 156.703125 154.769531 157.390625 153.921875 158.015625 C 153.078125 158.640625 152.191406 159.199219 151.261719 159.695312 C 150.332031 160.191406 149.375 160.613281 148.382812 160.96875 C 147.390625 161.320312 146.378906 161.601562 145.347656 161.804688 C 144.316406 162.007812 143.273438 162.136719 142.222656 162.1875 C 141.171875 162.238281 140.125 162.210938 139.078125 162.109375 C 138.03125 162.003906 136.996094 161.824219 135.976562 161.570312 C 134.957031 161.3125 133.960938 160.984375 132.988281 160.582031 C 132.015625 160.175781 131.078125 159.707031 130.175781 159.164062 C 129.273438 158.625 128.417969 158.019531 127.601562 157.351562 C 126.789062 156.683594 126.03125 155.960938 125.324219 155.183594 C 124.617188 154.402344 123.96875 153.578125 123.386719 152.703125 C 122.800781 151.828125 122.28125 150.914062 121.832031 149.964844 C 121.382812 149.011719 121.003906 148.035156 120.699219 147.027344 C 120.390625 146.023438 120.160156 145 120.003906 143.957031 C 119.851562 142.917969 119.773438 141.871094 119.769531 140.820312 L 119.769531 112.515625 L 162.632812 112.515625 L 162.632812 140.820312 C 162.636719 142.226562 162.503906 143.621094 162.230469 145 C 161.957031 146.378906 161.550781 147.71875 161.011719 149.019531 C 160.476562 150.320312 159.8125 151.554688 159.03125 152.722656 C 158.246094 153.890625 157.355469 154.96875 156.359375 155.960938 Z M 162.632812 106.894531 L 119.769531 106.894531 L 119.769531 89.9375 L 127.792969 81.914062 C 129.054688 80.660156 130.179688 79.296875 131.167969 77.820312 C 132.15625 76.347656 132.992188 74.789062 133.671875 73.148438 C 134.351562 71.507812 134.863281 69.816406 135.207031 68.070312 C 135.550781 66.328125 135.71875 64.570312 135.714844 62.792969 C 135.714844 60.492188 135.429688 58.222656 134.855469 55.992188 C 136.917969 55.351562 139.023438 55.035156 141.179688 55.035156 C 141.882812 55.035156 142.582031 55.070312 143.28125 55.136719 C 143.980469 55.207031 144.675781 55.308594 145.363281 55.445312 C 146.050781 55.582031 146.730469 55.753906 147.402344 55.957031 C 148.074219 56.160156 148.734375 56.394531 149.382812 56.664062 C 150.035156 56.929688 150.667969 57.230469 151.285156 57.558594 C 151.90625 57.890625 152.507812 58.25 153.089844 58.640625 C 153.675781 59.03125 154.238281 59.445312 154.78125 59.890625 C 155.324219 60.335938 155.84375 60.808594 156.34375 61.304688 C 156.839844 61.800781 157.308594 62.320312 157.753906 62.859375 C 158.203125 63.402344 158.621094 63.964844 159.011719 64.550781 C 159.402344 65.132812 159.761719 65.734375 160.09375 66.351562 C 160.425781 66.972656 160.726562 67.605469 160.996094 68.253906 C 161.261719 68.902344 161.5 69.5625 161.703125 70.234375 C 161.910156 70.90625 162.078125 71.585938 162.21875 72.273438 C 162.355469 72.960938 162.457031 73.65625 162.527344 74.351562 C 162.597656 75.050781 162.632812 75.753906 162.632812 76.453125 Z M 162.632812 106.894531 " fill-opacity="1" fill-rule="nonzero"/></g></svg>