<svg xmlns="http://www.w3.org/2000/svg" xmlns:xlink="http://www.w3.org/1999/xlink" width="271" zoomAndPan="magnify" viewBox="0 0 203.25 203.249996" height="271" preserveAspectRatio="xMidYMid meet" version="1.0"><defs><clipPath id="875c156c83"><path d="M 28.128906 26.65625 L 167.863281 26.65625 L 167.863281 173.117188 L 28.128906 173.117188 Z M 28.128906 26.65625 " clip-rule="nonzero"/></clipPath></defs><g clip-path="url(#875c156c83)"><path fill="#303e84" d="M 163.667969 126.246094 L 88.664062 126.246094 C 76.527344 126.246094 66.652344 116.367188 66.652344 104.230469 L 66.652344 61.589844 C 66.652344 49.453125 76.527344 39.574219 88.664062 39.574219 L 108.773438 39.574219 L 108.773438 47.824219 L 88.664062 47.824219 C 81.074219 47.824219 74.902344 54 74.902344 61.589844 L 74.902344 104.230469 C 74.902344 111.824219 81.074219 118 88.664062 118 L 163.667969 118 Z M 147.847656 135.769531 C 147.847656 140.308594 144.15625 144 139.621094 144 L 110.023438 144 C 105.484375 144 101.792969 140.308594 101.792969 135.769531 L 101.792969 130.003906 L 147.847656 130.003906 Z M 57.316406 98.980469 L 57.316406 66.90625 L 62.894531 66.90625 L 62.894531 98.980469 Z M 45.820312 90.734375 C 44.785156 90.734375 43.945312 91.574219 43.945312 92.613281 L 43.945312 134.816406 C 43.945312 148.859375 55.375 160.289062 69.417969 160.289062 L 151.050781 160.289062 C 156.601562 160.289062 161.226562 164.339844 162.125 169.640625 L 40.359375 169.640625 C 35.730469 169.640625 31.972656 165.875 31.972656 161.25 L 31.972656 85.566406 C 31.972656 80.9375 35.730469 77.171875 40.359375 77.171875 L 53.558594 77.171875 L 53.558594 90.734375 Z M 119.828125 30.421875 L 136.707031 30.421875 C 140.730469 30.421875 144.007812 33.695312 144.007812 37.71875 L 144.007812 55.8125 L 112.53125 55.8125 L 112.53125 37.71875 C 112.53125 33.695312 115.804688 30.421875 119.828125 30.421875 Z M 152.6875 65.550781 L 103.84375 65.550781 L 103.84375 59.570312 L 152.6875 59.570312 Z M 104.613281 104.207031 L 115.21875 101.882812 C 114.476562 103.34375 114.054688 104.992188 114.054688 106.742188 C 114.054688 109.417969 115.039062 111.867188 116.660156 113.75 L 105.652344 113.75 C 102.988281 113.75 100.824219 111.582031 100.824219 108.921875 C 100.824219 106.671875 102.417969 104.691406 104.613281 104.207031 Z M 148.820312 108.921875 C 148.820312 111.582031 146.652344 113.75 143.992188 113.75 L 132.984375 113.75 C 134.601562 111.867188 135.585938 109.417969 135.585938 106.742188 C 135.585938 104.992188 135.164062 103.34375 134.421875 101.882812 L 145.03125 104.207031 C 147.226562 104.691406 148.820312 106.671875 148.820312 108.921875 Z M 124.820312 113.75 C 120.957031 113.75 117.8125 110.605469 117.8125 106.742188 C 117.8125 102.878906 120.957031 99.734375 124.820312 99.734375 C 128.683594 99.734375 131.832031 102.878906 131.832031 106.742188 C 131.832031 110.605469 128.683594 113.75 124.820312 113.75 Z M 165.546875 114.246094 L 150.722656 114.246094 C 151.878906 112.78125 152.578125 110.933594 152.578125 108.921875 C 152.578125 104.921875 149.738281 101.394531 145.832031 100.539062 L 130.460938 97.171875 C 130.058594 97.082031 129.660156 97.003906 129.257812 96.9375 C 127.902344 96.324219 126.402344 95.976562 124.820312 95.976562 C 123.242188 95.976562 121.742188 96.324219 120.390625 96.933594 C 119.984375 97.003906 119.582031 97.082031 119.175781 97.171875 L 103.8125 100.539062 C 99.902344 101.394531 97.066406 104.921875 97.066406 108.921875 C 97.066406 110.933594 97.761719 112.78125 98.921875 114.246094 L 88.664062 114.246094 C 83.148438 114.246094 78.65625 109.75 78.65625 104.230469 L 78.65625 61.589844 C 78.65625 56.070312 83.148438 51.578125 88.664062 51.578125 L 108.773438 51.578125 L 108.773438 55.8125 L 101.96875 55.8125 C 100.929688 55.8125 100.089844 56.65625 100.089844 57.691406 L 100.089844 67.429688 C 100.089844 68.46875 100.929688 69.308594 101.96875 69.308594 L 154.566406 69.308594 C 155.601562 69.308594 156.445312 68.46875 156.445312 67.429688 L 156.445312 57.691406 C 156.445312 56.65625 155.601562 55.8125 154.566406 55.8125 L 147.761719 55.8125 L 147.761719 37.71875 C 147.761719 31.625 142.804688 26.667969 136.707031 26.667969 L 119.828125 26.667969 C 114.382812 26.667969 109.847656 30.625 108.941406 35.816406 L 88.664062 35.816406 C 74.457031 35.816406 62.894531 47.378906 62.894531 61.589844 L 62.894531 63.152344 L 55.4375 63.152344 C 54.398438 63.152344 53.558594 63.992188 53.558594 65.03125 L 53.558594 73.417969 L 40.359375 73.417969 C 33.664062 73.417969 28.214844 78.863281 28.214844 85.566406 L 28.214844 161.25 C 28.214844 167.949219 33.664062 173.398438 40.359375 173.398438 L 164.15625 173.398438 C 165.195312 173.398438 166.035156 172.554688 166.035156 171.519531 C 166.035156 163.257812 159.3125 156.535156 151.050781 156.535156 L 69.417969 156.535156 C 57.441406 156.535156 47.699219 146.792969 47.699219 134.816406 L 47.699219 94.492188 L 53.558594 94.492188 L 53.558594 100.859375 C 53.558594 101.894531 54.398438 102.738281 55.4375 102.738281 L 62.894531 102.738281 L 62.894531 104.230469 C 62.894531 118.441406 74.457031 130.003906 88.664062 130.003906 L 98.035156 130.003906 L 98.035156 135.769531 C 98.035156 142.375 103.414062 147.753906 110.023438 147.753906 L 139.621094 147.753906 C 146.226562 147.753906 151.601562 142.375 151.601562 135.769531 L 151.601562 130.003906 L 165.546875 130.003906 C 166.582031 130.003906 167.425781 129.160156 167.425781 128.125 L 167.425781 116.121094 C 167.425781 115.085938 166.582031 114.246094 165.546875 114.246094 " fill-opacity="1" fill-rule="nonzero"/></g><path fill="#303e84" d="M 119.230469 39.574219 L 128.269531 39.574219 C 129.304688 39.574219 130.148438 38.730469 130.148438 37.695312 C 130.148438 36.660156 129.304688 35.816406 128.269531 35.816406 L 119.230469 35.816406 C 118.195312 35.816406 117.351562 36.660156 117.351562 37.695312 C 117.351562 38.730469 118.195312 39.574219 119.230469 39.574219 " fill-opacity="1" fill-rule="nonzero"/></svg>